<svg width="32" height="32" viewBox="0 0 32 32" fill="none" xmlns="http://www.w3.org/2000/svg">
<path d="M16 32C24.8366 32 32 24.8366 32 16C32 7.16344 24.8366 0 16 0C7.16344 0 0 7.16344 0 16C0 24.8366 7.16344 32 16 32Z" fill="url(#paint0_radial_1_102)"/>
<path d="M19.8769 25H12.1231C10.7649 24.9985 9.46265 24.4583 8.5022 23.4978C7.54175 22.5374 7.00151 21.2352 7 19.8769V12.1231C7.00155 10.7648 7.5418 9.46263 8.50224 8.5022C9.46268 7.54177 10.7649 7.00153 12.1231 7H19.8769C21.2351 7.00155 22.5373 7.54179 23.4977 8.50222C24.4582 9.46264 24.9984 10.7648 25 12.1231V19.8769C24.9985 21.2352 24.4582 22.5374 23.4978 23.4978C22.5373 24.4583 21.2351 24.9985 19.8769 25ZM12.1231 8.54291C11.1739 8.54397 10.2639 8.92151 9.59271 9.59268C8.92151 10.2639 8.54395 11.1739 8.54286 12.1231V19.8769C8.54393 20.8262 8.92147 21.7362 9.59267 22.4074C10.2639 23.0786 11.1739 23.4561 12.1231 23.4572H19.8769C20.8261 23.4561 21.7361 23.0786 22.4073 22.4074C23.0785 21.7362 23.4561 20.8262 23.4571 19.8769V12.1231C23.4561 11.1739 23.0785 10.2638 22.4073 9.59267C21.7361 8.92149 20.8261 8.54397 19.8769 8.54291H12.1231Z" fill="white"/>
<path d="M15.9994 20.6087C14.7775 20.6073 13.606 20.1213 12.742 19.2573C11.878 18.3933 11.392 17.2218 11.3906 15.9999C11.392 14.778 11.878 13.6066 12.742 12.7425C13.6061 11.8785 14.7775 11.3925 15.9994 11.3911C17.2213 11.3925 18.3928 11.8785 19.2568 12.7425C20.1208 13.6066 20.6068 14.778 20.6082 15.9999C20.6068 17.2218 20.1208 18.3933 19.2568 19.2573C18.3928 20.1213 17.2213 20.6073 15.9994 20.6087ZM15.9994 12.934C15.1866 12.9349 14.4073 13.2582 13.8325 13.833C13.2577 14.4078 12.9344 15.1871 12.9335 15.9999C12.9344 16.8128 13.2577 17.5921 13.8325 18.1669C14.4073 18.7417 15.1866 19.065 15.9994 19.0659C16.8123 19.065 17.5916 18.7417 18.1664 18.1669C18.7412 17.5921 19.0645 16.8128 19.0654 15.9999C19.0645 15.1871 18.7411 14.4078 18.1664 13.833C17.5916 13.2582 16.8123 12.9349 15.9994 12.934Z" fill="white"/>
<path d="M21.9146 11.1275C21.9146 11.2729 21.8859 11.417 21.8303 11.5514C21.7746 11.6858 21.693 11.8079 21.5901 11.9107C21.4873 12.0136 21.3652 12.0951 21.2308 12.1508C21.0964 12.2065 20.9523 12.2351 20.8069 12.2351C20.6614 12.2351 20.5174 12.2065 20.383 12.1508C20.2486 12.0951 20.1265 12.0136 20.0236 11.9107C19.9208 11.8079 19.8392 11.6857 19.7835 11.5514C19.7279 11.417 19.6992 11.2729 19.6992 11.1275C19.6992 10.982 19.7279 10.838 19.7835 10.7036C19.8392 10.5692 19.9208 10.4471 20.0236 10.3442C20.1265 10.2413 20.2486 10.1598 20.383 10.1041C20.5174 10.0484 20.6614 10.0198 20.8069 10.0198C20.9523 10.0198 21.0964 10.0484 21.2308 10.1041C21.3652 10.1598 21.4873 10.2413 21.5901 10.3442C21.693 10.4471 21.7746 10.5692 21.8303 10.7036C21.8859 10.838 21.9146 10.982 21.9146 11.1275Z" fill="white"/>
<defs>
<radialGradient id="paint0_radial_1_102" cx="0" cy="0" r="1" gradientUnits="userSpaceOnUse" gradientTransform="translate(5.16266 31.5693) scale(38.6151)">
<stop stop-color="#FEC053"/>
<stop offset="0.32727" stop-color="#F2203E"/>
<stop offset="0.64848" stop-color="#B729A8"/>
<stop offset="1" stop-color="#5342D6"/>
</radialGradient>
</defs>
</svg>
